<svg width="28" height="24" viewBox="0 0 28 24" fill="none" xmlns="http://www.w3.org/2000/svg">
<path d="M7.61523 0.262023C7.23281 0.428294 6.73399 0.827343 6.50121 1.12663C5.85276 2.00786 -0.0165918 19.8819 3.52582e-05 21.0126C3.52582e-05 22.4425 0.997659 23.5732 2.59386 23.9556C3.34207 24.1385 4.52259 23.7394 5.22093 23.0743C5.76962 22.5423 5.95252 22.11 6.96677 19.0672C8.19718 15.2763 8.42995 14.9105 9.54397 14.9105C10.0428 14.9105 10.2589 15.0102 10.6081 15.4259C10.8409 15.7086 11.0404 16.091 11.0404 16.2739C11.0404 16.4734 10.7744 17.4378 10.4585 18.4188C10.1425 19.4164 9.87651 20.5304 9.87651 20.8962C9.87651 22.5423 11.2566 23.8891 12.9525 23.8891C14.7482 23.8891 15.5463 23.091 16.4276 20.3475C17.2423 17.8368 17.8575 17.3048 19.171 17.9865C19.8527 18.3356 20.1021 19.0506 19.8694 19.9983C19.4869 21.4948 20.2684 23.0245 21.715 23.623C22.9454 24.1385 24.1592 23.8724 25.1401 22.8914C25.5891 22.4259 25.8717 21.7109 26.8361 18.7846C27.4846 16.8392 28 15.1266 28 14.9603C28 13.7632 26.9525 12.2501 25.8884 11.901C24.4086 11.4188 22.6793 12.1171 22.0475 13.4805C21.3492 14.9603 20.3682 15.3261 19.3706 14.4782C18.6889 13.9128 18.7055 13.4972 19.4371 11.2359C20.0855 9.22401 20.1354 8.69194 19.753 7.79408C19.3706 6.86296 18.7221 6.28102 17.7577 5.99836C16.8266 5.73232 16.3278 5.79883 15.3302 6.28102C14.4822 6.71332 14.1663 7.22876 13.468 9.34039C12.8361 11.2359 12.5535 11.6848 11.8884 11.9342C11.0238 12.2668 9.87651 11.4354 9.87651 10.4877C9.87651 10.3214 10.3753 8.69194 10.9739 6.86296C11.8884 4.1195 12.0547 3.40454 12.0048 2.73945C11.905 1.82497 11.3064 0.827343 10.5416 0.39504C9.76012 -0.0705177 8.42995 -0.137026 7.61523 0.262023Z" fill="#9290C3"/>
</svg>
